<svg width="80" height="80" viewBox="0 0 80 80" fill="none" xmlns="http://www.w3.org/2000/svg">
<path d="M78.4547 70.6282C80.8109 73.0532 80.4305 76.655 77.6018 78.6746C76.4057 79.5315 74.8962 80.0007 73.3374 80C71.4266 80 69.5313 79.2996 68.2147 77.9429L39.9978 48.7711L11.7906 77.7889C10.4723 79.145 8.5782 79.8461 6.66786 79.8461C5.10906 79.8466 3.59964 79.3774 2.40344 78.5207C-0.425619 76.5011 -0.806855 72.8993 1.55056 70.4743L31.3202 39.8494L1.54556 9.37837C-0.811229 6.95338 -0.430411 3.3516 2.39927 1.33196C5.22417 -0.693035 9.42609 -0.367321 11.7864 2.06303L39.9978 31.0748L68.2051 2.05696C70.5592 -0.368036 74.7632 -0.696607 77.5922 1.32589C80.4213 3.34553 80.8025 6.94731 78.4451 9.3723L48.6754 39.9972L78.4547 70.6282Z" fill="#7F1E7B"/>
</svg>
